<?xml version="1.0" encoding="utf-8"?>
<!-- Generator: Adobe Illustrator 19.0.1, SVG Export Plug-In . SVG Version: 6.00 Build 0)  -->
<svg version="1.1" id="Capa_1" xmlns="http://www.w3.org/2000/svg" xmlns:xlink="http://www.w3.org/1999/xlink" x="0px" y="0px"
	 viewBox="0 0 50 50" style="enable-background:new 0 0 50 50;" xml:space="preserve">
<style type="text/css">
	.st0{fill:#FFFFFF;}
</style>
<g>
	<g>
		<g>
			<path class="st0" d="M1029.4,2689.5c16.5,1.2,28-7,33.8-18c4.9-9.2,4.6-23.3,0-32c-4.6-8.9-13.7-16.2-25.9-18h-8.6
				c-13.4,2.5-21.4,8.9-26.2,17.7C990.7,2662,1007.2,2687.6,1029.4,2689.5L1029.4,2689.5L1029.4,2689.5z M1028.8,2698.6
				c-18.6-1.5-30.8-14.3-36.3-28.7h-32c5.8,15.5,16.5,41.5,22.9,57.9h-10c-11-25.6-22.6-51.5-33.9-77.1l-27.5,0v9.5h20.7
				c11.3,25.9,22.6,51.8,34.2,77.5h73.5c5.8-15.8,12.5-31.4,18.3-47.3C1051.3,2695.2,1041.6,2699.5,1028.8,2698.6L1028.8,2698.6
				L1028.8,2698.6z M1017.8,2648.9c3.4,3.7,6.4,7,10.1,10c7-6.6,13.7-13.4,20.4-20.4c2.5,1.5,4,4.2,6.7,6
				c-8.8,9.5-18,18.6-27.4,27.4c-5.2-5.5-10.7-11-16.5-16.4C1012.9,2653.2,1015.4,2650.8,1017.8,2648.9L1017.8,2648.9z"/>
		</g>
		<g>
			<path class="st0" d="M1041.2,2738.7h-74.9l-0.3-0.6c-10.9-24-21.7-48.7-32.1-72.6l-1.9-4.3h-21.1v-11.6l29.2,0l0.3,0.6
				c2.7,6.2,5.5,12.4,8.2,18.6c8.4,19,17.1,38.7,25.4,57.9h7.7c-2.5-6.3-5.5-13.8-8.6-21.6c-5-12.6-10.2-25.6-13.7-34.9l-0.5-1.5
				h34.3l0.3,0.7c6.2,16.2,19.4,26.7,35.4,28l1,0.1c0.7,0,1.5,0,2.2,0c9.2,0,17.7-2.7,26-8.2l2.7-1.8l-1.1,3.1
				c-2.9,7.9-6.1,15.9-9.1,23.6c-3.1,7.7-6.3,15.7-9.1,23.7L1041.2,2738.7z M967.6,2736.6h72c2.8-7.7,5.9-15.5,8.9-23
				c2.7-6.7,5.4-13.7,8-20.6c-7.9,4.6-15.9,6.9-24.5,6.9c-1.1,0-2.2,0-3.3-0.1l-1-0.1c-16.1-1.7-29.5-12.3-35.9-28.6H962
				c3.5,9.2,8.4,21.5,13.1,33.4c3.4,8.4,6.6,16.5,9.2,23.1l0.6,1.5h-12.3l-0.3-0.7c-8.4-19.4-17.1-39.3-25.6-58.5
				c-2.7-6-5.3-12-7.9-17.9l-25.7,0v7.3h20.4l2.4,5.6C946.2,2688.3,956.8,2712.8,967.6,2736.6z M1032.6,2690.7c-0.7,0-1.4,0-2.2-0.1
				v0l-1.2-0.1c-11.3-0.9-21.5-7.8-27.3-18.3c-5.9-10.6-6-22.9-0.4-33.6c5.5-10,14.3-15.9,27-18.3l8.7,0
				c11.8,1.8,21.8,8.8,26.8,18.6c4.9,9.3,4.9,23.8,0,33C1057.9,2683.9,1046.4,2690.7,1032.6,2690.7z M1028.9,2688.4l0.5,0
				c1.1,0.1,2.1,0.1,3.2,0.1c13,0,23.8-6.4,29.6-17.5c4.6-8.7,4.6-22.3,0-31c-4.8-9.3-14.1-15.8-25.1-17.5l-8.4,0
				c-11.8,2.2-20.1,7.8-25.3,17.1c-5.2,10.1-5.1,21.6,0.4,31.6C1009.2,2680.9,1018.6,2687.3,1028.9,2688.4z"/>
		</g>
	</g>
	<circle class="st0" cx="976.9" cy="2756.7" r="12"/>
	<circle class="st0" cx="1027.1" cy="2756.7" r="12"/>
</g>
<path class="st0" d="M2225.2,2697.9c-3.2-0.2-9.7,3.4-11.6,4.2c-6.4,3.2-15.3,8.2-21.2,12.3c-0.3,0.3-1,0.7-1.3,0.8
	c-2.7,1.7-5.4,2.9-8.6,3.5c-17,3.7-41.8,4-41.8,4h-1.5c-1.2,0-2-0.7-2.2-1.7c-0.2-1.2,0.7-2.2,1.8-2.4l37-3.5c4-0.5,7.2-4.2,6.9-8.6
	c-0.5-4.2-4.4-7.4-8.4-6.9l-32.8-0.3c-2.2,0-5.9-0.5-7.9-1.2c-21.2-6.2-33.1-0.3-39.5,2.4c-1.3-2.4-4-3.9-7.1-3.7l-14.1,1
	c-4.7,0.3-8.2,4.2-7.9,8.7l2.2,31.4c0.3,4.5,4.4,7.9,9.1,7.6l14.1-1c3-0.2,5.4-2,6.6-4.5l62.2,2.7c6.9,0.7,13.4-0.2,19.5-3.4l1.8-1
	l47-27.6c2.4-1.3,4-3.7,4-6.2C2231.6,2701.7,2229.7,2698.2,2225.2,2697.9z M2081.5,2738.2c-2.7,0-4.9-2-4.9-4.7
	c0-2.5,2.2-4.7,4.9-4.7s4.9,2,4.9,4.7S2084.2,2738.2,2081.5,2738.2z M2190.4,2708.8c0-0.8,0-1.7,0-2.7c-0.2-1.2-0.3-2.2-0.7-3.2
	v-0.2c4.9-2.7,14.6-7.4,20-9.4c2.7-1,5.2-1,7.7,0.7c-1.8,0.7-3.7,1.5-5.4,2.4c-5.5,2.9-15.3,8.1-20.2,11.4
	C2191.2,2708,2190.7,2708.3,2190.4,2708.8z M2183.2,2694.9c3.2-1.7,10.6-4,13.8-5.4c2.7-1,5.2-1,7.6,0.7c-3.9,1.7-11.3,4.4-14.6,6.2
	l-2.4,1.3c-0.2,0.2-0.5,0.3-0.7,0.5C2185.7,2696.7,2184.5,2695.7,2183.2,2694.9z M2108.4,2644c0,25.7,20.8,46.5,46.5,46.5
	c25.7,0,46.5-20.8,46.5-46.5c0-25.7-20.8-46.5-46.5-46.5C2129.2,2597.4,2108.4,2618.2,2108.4,2644z M2154.9,2607
	c20.3,0,37,16.6,37,37s-16.6,37-37,37s-37-16.6-37-37S2134.6,2607,2154.9,2607z M2140.3,2660.4c0.3-1.3,0.7-2.7,1.2-4
	c0.5-1.5,0.8-1.8,2.4-1c2.5,1.3,5,2,7.9,2.4c1.8,0.2,3.5,0,5.2-0.7c3-1.3,3.5-4.9,1-7.1c-0.8-0.7-1.8-1.3-2.9-1.7
	c-2.7-1.2-5.5-2-8.1-3.5c-4.2-2.5-6.7-5.9-6.4-10.9c0.3-5.7,3.5-9.2,8.7-11.1c2.2-0.8,2.2-0.7,2.2-3c0-0.8,0-1.5,0-2.4
	c0-1.7,0.3-2,2-2c0.5,0,1,0,1.5,0c3.5,0,3.5,0,3.5,3.5c0,2.5,0,2.5,2.5,3c2,0.3,3.9,0.8,5.5,1.7c1,0.5,1.3,1.2,1,2.2
	c-0.5,1.5-0.8,3-1.3,4.7c-0.5,1.5-1,1.7-2.4,1c-2.9-1.3-5.7-1.8-8.9-1.7c-0.8,0-1.7,0.2-2.4,0.5c-2.7,1.2-3,4.2-0.8,5.9
	c1.2,0.8,2.5,1.5,3.9,2.2c2.4,1,4.7,1.8,7.1,3.2c7.2,4,9.1,12.9,4,19.2c-1.8,2.2-4.2,3.7-6.9,4.5c-1.2,0.3-1.7,1-1.7,2.2
	s0,2.5,0,3.7s-0.5,1.7-1.7,1.7c-1.3,0-2.7,0-4,0c-1.2,0-1.7-0.7-1.7-1.8c0-0.8,0-1.8,0-2.7c0-2,0-2-2-2.4c-2.5-0.3-4.9-1-7.1-2
	C2140,2662.8,2139.8,2662.3,2140.3,2660.4z"/>
<path class="st0" d="M42.6,31c-0.7,0-2.2,0.8-2.6,1c-1.5,0.7-3.5,1.9-4.8,2.8c-0.1,0.1-0.2,0.2-0.3,0.2c-0.6,0.4-1.2,0.6-1.9,0.8
	c-3.9,0.8-9.5,0.9-9.5,0.9h-0.3c-0.3,0-0.5-0.2-0.5-0.4c0-0.3,0.2-0.5,0.4-0.5l8.4-0.8c0.9-0.1,1.6-1,1.6-1.9c-0.1-1-1-1.7-1.9-1.6
	l-7.4-0.1c-0.5,0-1.3-0.1-1.8-0.3c-4.8-1.4-7.5-0.1-9,0.5c-0.3-0.5-0.9-0.9-1.6-0.8L8,31c-1.1,0.1-1.9,1-1.8,2l0.5,7.1
	c0.1,1,1,1.8,2.1,1.7l3.2-0.2c0.7,0,1.2-0.5,1.5-1l14.1,0.6c1.6,0.2,3.1,0,4.4-0.8l0.4-0.2l10.7-6.3c0.5-0.3,0.9-0.8,0.9-1.4
	C44,31.9,43.6,31.1,42.6,31z M10,40.1c-0.6,0-1.1-0.5-1.1-1.1c0-0.6,0.5-1.1,1.1-1.1s1.1,0.5,1.1,1.1S10.6,40.1,10,40.1z M34.7,33.5
	c0-0.2,0-0.4,0-0.6c0-0.3-0.1-0.5-0.2-0.7v0c1.1-0.6,3.3-1.7,4.5-2.1c0.6-0.2,1.2-0.2,1.8,0.2c-0.4,0.2-0.8,0.3-1.2,0.5
	c-1.3,0.6-3.5,1.8-4.6,2.6C34.9,33.3,34.8,33.4,34.7,33.5z M33.1,30.3c0.7-0.4,2.4-0.9,3.1-1.2c0.6-0.2,1.2-0.2,1.7,0.2
	c-0.9,0.4-2.6,1-3.3,1.4L34,31c0,0-0.1,0.1-0.2,0.1C33.6,30.7,33.4,30.5,33.1,30.3z M16.1,18.7c0,5.8,4.7,10.6,10.6,10.6
	s10.6-4.7,10.6-10.6S32.5,8.2,26.6,8.2S16.1,12.9,16.1,18.7z M26.6,10.3c4.6,0,8.4,3.8,8.4,8.4s-3.8,8.4-8.4,8.4s-8.4-3.8-8.4-8.4
	S22,10.3,26.6,10.3z M23.3,22.5c0.1-0.3,0.2-0.6,0.3-0.9c0.1-0.3,0.2-0.4,0.5-0.2c0.6,0.3,1.1,0.5,1.8,0.5c0.4,0,0.8,0,1.2-0.2
	c0.7-0.3,0.8-1.1,0.2-1.6c-0.2-0.2-0.4-0.3-0.6-0.4c-0.6-0.3-1.3-0.5-1.8-0.8c-1-0.6-1.5-1.3-1.5-2.5c0.1-1.3,0.8-2.1,2-2.5
	c0.5-0.2,0.5-0.2,0.5-0.7c0-0.2,0-0.3,0-0.5c0-0.4,0.1-0.5,0.5-0.5c0.1,0,0.2,0,0.3,0c0.8,0,0.8,0,0.8,0.8c0,0.6,0,0.6,0.6,0.7
	c0.5,0.1,0.9,0.2,1.3,0.4c0.2,0.1,0.3,0.3,0.2,0.5c-0.1,0.3-0.2,0.7-0.3,1.1c-0.1,0.3-0.2,0.4-0.5,0.2c-0.6-0.3-1.3-0.4-2-0.4
	c-0.2,0-0.4,0-0.5,0.1c-0.6,0.3-0.7,1-0.2,1.3c0.3,0.2,0.6,0.3,0.9,0.5c0.5,0.2,1.1,0.4,1.6,0.7c1.6,0.9,2.1,2.9,0.9,4.4
	c-0.4,0.5-1,0.8-1.6,1c-0.3,0.1-0.4,0.2-0.4,0.5c0,0.3,0,0.6,0,0.8s-0.1,0.4-0.4,0.4c-0.3,0-0.6,0-0.9,0c-0.3,0-0.4-0.2-0.4-0.4
	c0-0.2,0-0.4,0-0.6c0-0.5,0-0.5-0.5-0.5c-0.6-0.1-1.1-0.2-1.6-0.5C23.2,23,23.2,22.9,23.3,22.5z"/>
</svg>
