<?xml version="1.0" encoding="utf-8"?>
<!-- Generator: Adobe Illustrator 19.0.1, SVG Export Plug-In . SVG Version: 6.00 Build 0)  -->
<svg version="1.1" id="Capa_1" xmlns="http://www.w3.org/2000/svg" xmlns:xlink="http://www.w3.org/1999/xlink" x="0px" y="0px"
	 viewBox="0 0 50 50" style="enable-background:new 0 0 50 50;" xml:space="preserve">
<style type="text/css">
	.st0{fill:#FFFFFF;}
</style>
<g>
	<g>
		<g>
			<path class="st0" d="M1029.4,2689.5c16.5,1.2,28-7,33.8-18c4.9-9.2,4.6-23.3,0-32c-4.6-8.9-13.7-16.2-25.9-18h-8.6
				c-13.4,2.5-21.4,8.9-26.2,17.7C990.7,2662,1007.2,2687.6,1029.4,2689.5L1029.4,2689.5L1029.4,2689.5z M1028.8,2698.6
				c-18.6-1.5-30.8-14.3-36.3-28.7h-32c5.8,15.5,16.5,41.5,22.9,57.9h-10c-11-25.6-22.6-51.5-33.9-77.1l-27.5,0v9.5h20.7
				c11.3,25.9,22.6,51.8,34.2,77.5h73.5c5.8-15.8,12.5-31.4,18.3-47.3C1051.3,2695.2,1041.6,2699.5,1028.8,2698.6L1028.8,2698.6
				L1028.8,2698.6z M1017.8,2648.9c3.4,3.7,6.4,7,10.1,10c7-6.6,13.7-13.4,20.4-20.4c2.5,1.5,4,4.2,6.7,6
				c-8.8,9.5-18,18.6-27.4,27.4c-5.2-5.5-10.7-11-16.5-16.4C1012.9,2653.2,1015.4,2650.8,1017.8,2648.9L1017.8,2648.9z"/>
		</g>
		<g>
			<path class="st0" d="M1041.2,2738.7h-74.9l-0.3-0.6c-10.9-24-21.7-48.7-32.1-72.6l-1.9-4.3h-21.1v-11.6l29.2,0l0.3,0.6
				c2.7,6.2,5.5,12.4,8.2,18.6c8.4,19,17.1,38.7,25.4,57.9h7.7c-2.5-6.3-5.5-13.8-8.6-21.6c-5-12.6-10.2-25.6-13.7-34.9l-0.5-1.5
				h34.3l0.3,0.7c6.2,16.2,19.4,26.7,35.4,28l1,0.1c0.7,0,1.5,0,2.2,0c9.2,0,17.7-2.7,26-8.2l2.7-1.8l-1.1,3.1
				c-2.9,7.9-6.1,15.9-9.1,23.6c-3.1,7.7-6.3,15.7-9.1,23.7L1041.2,2738.7z M967.6,2736.6h72c2.8-7.7,5.9-15.5,8.9-23
				c2.7-6.7,5.4-13.7,8-20.6c-7.9,4.6-15.9,6.9-24.5,6.9c-1.1,0-2.2,0-3.3-0.1l-1-0.1c-16.1-1.7-29.5-12.3-35.9-28.6H962
				c3.5,9.2,8.4,21.5,13.1,33.4c3.4,8.4,6.6,16.5,9.2,23.1l0.6,1.5h-12.3l-0.3-0.7c-8.4-19.4-17.1-39.3-25.6-58.5
				c-2.7-6-5.3-12-7.9-17.9l-25.7,0v7.3h20.4l2.4,5.6C946.2,2688.3,956.8,2712.8,967.6,2736.6z M1032.6,2690.7c-0.7,0-1.4,0-2.2-0.1
				v0l-1.2-0.1c-11.3-0.9-21.5-7.8-27.3-18.3c-5.9-10.6-6-22.9-0.4-33.6c5.5-10,14.3-15.9,27-18.3l8.7,0
				c11.8,1.8,21.8,8.8,26.8,18.6c4.9,9.3,4.9,23.8,0,33C1057.9,2683.9,1046.4,2690.7,1032.6,2690.7z M1028.9,2688.4l0.5,0
				c1.1,0.1,2.1,0.1,3.2,0.1c13,0,23.8-6.4,29.6-17.5c4.6-8.7,4.6-22.3,0-31c-4.8-9.3-14.1-15.8-25.1-17.5l-8.4,0
				c-11.8,2.2-20.1,7.8-25.3,17.1c-5.2,10.1-5.1,21.6,0.4,31.6C1009.2,2680.9,1018.6,2687.3,1028.9,2688.4z"/>
		</g>
	</g>
	<circle class="st0" cx="976.9" cy="2756.7" r="12"/>
	<circle class="st0" cx="1027.1" cy="2756.7" r="12"/>
</g>
<g>
	<circle class="st0" cx="13.1" cy="35.4" r="4.6"/>
	<circle class="st0" cx="33.6" cy="35.4" r="4.6"/>
	<path class="st0" d="M6.2,14.9v17.6c0,0.9,0.5,1.6,1.2,2c0.4-2.7,2.8-4.8,5.6-4.8c3,0,5.4,2.2,5.7,5.1h4.6h3.4h1.2
		c0.3-2.9,2.7-5.1,5.7-5.1s5.4,2.2,5.7,5.1h1.2c1.3,0,2.3-1,2.3-2.3v-7.4l-5.1-5.7c0-1.3-1-2.3-2.3-2.3h-0.6h-0.6h-2.3v-2.3
		c0-1.3-1-2.3-2.3-2.3h-6.3h-12H8.6C7.3,12.6,6.2,13.7,6.2,14.9z M31.9,20h3.4l5.1,5.7h-8.5V20z"/>
</g>
</svg>
