<?xml version="1.0" encoding="utf-8"?>
<!-- Generator: Adobe Illustrator 19.0.1, SVG Export Plug-In . SVG Version: 6.00 Build 0)  -->
<svg version="1.1" id="Capa_1" xmlns="http://www.w3.org/2000/svg" xmlns:xlink="http://www.w3.org/1999/xlink" x="0px" y="0px"
	 viewBox="0 0 50 50" style="enable-background:new 0 0 50 50;" xml:space="preserve">
<style type="text/css">
	.st0{fill:#FFFFFF;}
</style>
<path class="st0" d="M13.5,3.3v43.3L25,34.2l11.5,12.4V3.3H13.5z M28.6,27.6c-0.8,0.8-1.9,1.3-3.4,1.3c-1.9,0-3.1-0.6-3.9-1.8
	c-0.4-0.6-0.6-1.5-0.6-2.5h2.5c0,0.5,0.1,1,0.3,1.3c0.3,0.6,0.9,0.9,1.7,0.9c0.5,0,0.9-0.2,1.3-0.5c0.4-0.3,0.6-0.8,0.6-1.5
	c0-0.9-0.3-1.4-1-1.7c-0.4-0.2-1-0.2-1.9-0.2v-1.8c0.8,0,1.4-0.1,1.7-0.2c0.6-0.3,0.9-0.8,0.9-1.5c0-0.5-0.1-0.9-0.4-1.2
	c-0.3-0.3-0.7-0.5-1.2-0.5c-0.6,0-1.1,0.2-1.3,0.6c-0.3,0.4-0.4,0.9-0.4,1.5H21c0-0.6,0.1-1.3,0.3-1.8c0.2-0.5,0.5-1,1-1.4
	c0.3-0.3,0.7-0.5,1.2-0.7s1-0.2,1.7-0.2c1.2,0,2.3,0.3,3,1c0.8,0.6,1.1,1.5,1.1,2.6c0,0.8-0.2,1.4-0.7,1.9c-0.3,0.3-0.6,0.6-0.9,0.7
	c0.2,0,0.6,0.2,1,0.6c0.7,0.6,1,1.4,1,2.5C29.8,25.8,29.4,26.7,28.6,27.6z"/>
</svg>
