<?xml version="1.0" encoding="utf-8"?>
<!-- Generator: Adobe Illustrator 19.0.1, SVG Export Plug-In . SVG Version: 6.00 Build 0)  -->
<svg version="1.1" id="Capa_1" xmlns="http://www.w3.org/2000/svg" xmlns:xlink="http://www.w3.org/1999/xlink" x="0px" y="0px"
	 viewBox="0 0 50 50" style="enable-background:new 0 0 50 50;" xml:space="preserve">
<style type="text/css">
	.st0{fill:#FFFFFF;}
</style>
<g id="vojEFr.tif">
	<g>
		<path class="st0" d="M45.4,10.8c-0.1,1.5-0.2,3-0.3,4.5c0,0.4,0,0.9-0.1,1.3c-0.3,1.1-1.4,1.5-2.3,0.6c-0.6-0.6-1.2-1.3-1.9-2
			c-0.3,0.3-0.5,0.5-0.7,0.7C35,21,29.8,26.2,24.6,31.4c-1.3,1.3-2.4,1.3-3.7,0c-1.9-1.9-3.8-3.8-5.7-5.7c-0.2-0.2-0.3-0.3-0.6-0.5
			c-0.9,0.9-1.7,1.8-2.6,2.6c-1.3,1.3-2.7,2.5-3.9,3.9c-1.5,1.6-3.3,1.1-4.2-0.7c0-0.1-0.1-0.2-0.2-0.2c0-0.4,0-0.8,0-1.1
			c0.4-0.5,0.7-1,1.1-1.5c2.7-2.7,5.3-5.3,8-8c1.2-1.2,2.3-1.2,3.5,0c2.1,2.1,4.2,4.2,6.2,6.2c4.9-4.9,9.8-9.8,14.7-14.7
			c-0.5-0.5-1.2-1.1-1.7-1.7c-0.4-0.4-0.8-0.8-0.5-1.5c0.3-0.7,0.8-0.9,1.5-0.9c1.5-0.1,3-0.1,4.5-0.2c0.3,0,0.5-0.1,0.8-0.1
			c1.2,0,2.4,0,3.6,0C45.4,8.5,45.4,9.6,45.4,10.8z"/>
		<path class="st0" d="M34.9,42.7c-0.1-0.4-0.4-0.8-0.4-1.2c0-5.3,0-10.6,0-15.9c0-0.3,0.1-0.6,0.3-0.8c1.9-2,3.9-4,6.1-6.1
			c0.2,0.4,0.4,0.7,0.4,1c0,7.3,0,14.6,0,22c0,0.4-0.3,0.7-0.4,1.1C38.9,42.7,36.9,42.7,34.9,42.7z"/>
		<path class="st0" d="M25.6,42.7c-0.1-0.4-0.4-0.7-0.4-1.1c0-2.3,0-4.6,0-6.9c0-0.2,0.1-0.5,0.2-0.7c1.9-1.9,3.9-3.8,5.8-5.7
			c0.2-0.2,0.3-0.4,0.5-0.6c0.1,0,0.1,0.1,0.2,0.1c0,0.2,0,0.4,0,0.6c0,4.4,0,8.8,0,13.2c0,0.4-0.3,0.8-0.4,1.1
			C29.6,42.7,27.6,42.7,25.6,42.7z"/>
		<path class="st0" d="M16.3,42.7c-0.1-0.3-0.4-0.5-0.4-0.8c0-3.9,0-7.8,0-11.8c0.2,0.2,0.4,0.3,0.5,0.4c0.8,0.8,1.7,1.6,2.5,2.5
			c1,1.1,2.1,1.9,3.8,1.9c0,0.4,0,0.7,0,1.1c0,1.9,0,3.7,0,5.6c0,0.4-0.3,0.8-0.4,1.1C20.3,42.7,18.3,42.7,16.3,42.7z"/>
		<path class="st0" d="M7,42.7c-0.2-0.3-0.4-0.6-0.5-1c0-2,0-4,0-6c0-0.4,0.1-0.6,0.5-0.6c1-0.1,1.9-0.7,2.6-1.4
			c1.2-1.2,2.3-2.4,3.6-3.6c0,0.3,0.1,0.5,0.1,0.7c0,3.6,0,7.2,0,10.8c0,0.4-0.3,0.8-0.4,1.2C11,42.7,9,42.7,7,42.7z"/>
	</g>
</g>
</svg>
